<svg id="filled_outline" height="512" viewBox="0 0 512 512" width="512" xmlns="http://www.w3.org/2000/svg" data-name="filled outline"><path d="m216 152h112v128h-112z" fill="#02c26a"/><path d="m248 184h48v56h-48z" fill="#3cde8d"/><path d="m456 496v-96a40 40 0 0 0 -40-40h-320a40 40 0 0 0 -40 40v96z" fill="#8760e6"/><path d="m312 280v80a56 56 0 1 1 -112 0v-80z" fill="#ffceb6"/><path d="m344 200 15.71574-15.71574a28.28425 28.28425 0 0 0 8.28426-20 28.28425 28.28425 0 0 0 -28.28424-28.28426h-11.71576l-56.88889 64z" fill="#c47220"/><path d="m344 200v96.00007a71.99993 71.99993 0 0 1 -71.99993 71.99993h-.00014a71.99993 71.99993 0 0 1 -71.99993-71.99993v-16.00007l71.11111-80z" fill="#ffceb6"/><path d="m232 120h80v32h-80z" fill="#ffc431"/><path d="m184 168h32v96h-32z" fill="#ffc431"/><g fill="#bed3f7"><circle cx="104" cy="128" r="16"/><circle cx="152" cy="72" r="16"/><circle cx="208" cy="40" r="16"/><circle cx="264" cy="64" r="16"/><circle cx="344" cy="40" r="16"/><circle cx="104" cy="232" r="16"/><circle cx="72" cy="184" r="16"/></g><circle cx="264" cy="248" r="8"/><circle cx="312" cy="248" r="8"/><path d="m272 304h8a24.02718 24.02718 0 0 0 24-24v-16h-16v16a8.00917 8.00917 0 0 1 -8 8h-8z"/><path d="m273.88867 336h22.11133v-16h-22.11133a20.83053 20.83053 0 0 1 -18.7334-11.57812l-14.31054 7.15624a36.7425 36.7425 0 0 0 33.04394 20.42188z"/><path d="m464 496v-96a48.054 48.054 0 0 0 -48-48h-86.94092a79.72456 79.72456 0 0 0 22.94092-56v-92.68652l13.373-13.37305a36.28411 36.28411 0 0 0 -25.65718-61.94043h-11.71582a8.0011 8.0011 0 0 0 -5.97949 2.68555l-2.02051 2.27295v-12.9585a8.00008 8.00008 0 0 0 -8-8h-8v-20.68652l29.65918-29.65869a24.00928 24.00928 0 1 0 -11.31384-11.314l-32.00208 32.002a8.00076 8.00076 0 0 0 -2.34326 5.65721v24h-16v-25.37622a24 24 0 1 0 -16 0v25.37622h-24a8.00008 8.00008 0 0 0 -8 8v24h-8a8.00008 8.00008 0 0 0 -8 8v8h-24a8.00008 8.00008 0 0 0 -8 8v16h-4.68652l-11.31348-11.31348v-25.37252l53.65674-53.65673a8.00076 8.00076 0 0 0 2.34326-5.65727v-25.37622a24 24 0 1 0 -16 0v22.06274l-40 39.99948v-30.06222a24 24 0 1 0 -16 0v62.0625l-18.34546-18.34546a24.00828 24.00828 0 1 0 -11.31384 11.314l48.00256 48.00244a8.00035 8.00035 0 0 0 5.65674 2.34274h8v24h-12.686l-45.65722-45.65723a8.00035 8.00035 0 0 0 -5.65678-2.34277h-17.37622a24 24 0 1 0 0 16h14.06274l31.99964 32h-14.06238a24 24 0 1 0 0 16h49.37622v24a8.00008 8.00008 0 0 0 8 8h12.40771l-2.3872 2.68555a8.00035 8.00035 0 0 0 -2.02051 5.31445v72h-96a48.054 48.054 0 0 0 -48 48v96h16v-96a32.03635 32.03635 0 0 1 32-32h96.51782a63.982 63.982 0 0 0 126.96436 0h96.51782a32.03635 32.03635 0 0 1 32 32v96zm-120-464a8 8 0 1 1 -8 8 8.00917 8.00917 0 0 1 8-8zm-80 24a8 8 0 1 1 -8 8 8.00917 8.00917 0 0 1 8-8zm-56-24a8 8 0 1 1 -8 8 8.00917 8.00917 0 0 1 8-8zm-56 32a8 8 0 1 1 -8 8 8.00917 8.00917 0 0 1 8-8zm-56 64a8 8 0 1 1 8 8 8.00917 8.00917 0 0 1 -8-8zm-24 64a8 8 0 1 1 8-8 8.00917 8.00917 0 0 1 -8 8zm32 48a8 8 0 1 1 8-8 8.00917 8.00917 0 0 1 -8 8zm227.59229-96h8.12353a20.28409 20.28409 0 0 1 14.34326 34.627l-13.37256 13.373h-51.76074zm-27.59229 0h-24v-16h24zm-64-16h24v16h-24zm55.96313 32-14.22213 16h-33.741a8.00008 8.00008 0 0 0 -8 8v38.9585l-16 18v-80.9585zm-28.44433 32-11.5188 12.9585v-12.9585zm-75.5188 16h16v16h-16zm16-32v16h-16v-16zm-16 64h16v16h-16zm16 43.042 66.70361-75.042h61.29639v88a64 64 0 0 1 -128 0zm48 124.958a48.054 48.054 0 0 1 -48-48v-16.05542a79.931 79.931 0 0 0 95.00366 25.80054 48.08049 48.08049 0 0 1 -47.00366 38.25488z"/></svg>